<svg xmlns="http://www.w3.org/2000/svg" viewBox="0 0 16 16" width="32" height="32">
    <path style="line-height:normal;text-indent:0;text-align:start;text-decoration-line:none;text-decoration-style:solid;text-decoration-color:#000;text-transform:none;block-progression:tb;isolation:auto;mix-blend-mode:normal" d="M 2.5996094 1 C 1.7218821 1 1 1.7218821 1 2.5996094 L 1 11.400391 C 1 12.278118 1.7218821 13 2.5996094 13 L 11.400391 13 C 12.278118 13 13 12.278118 13 11.400391 L 13 2.5996094 C 13 1.7218821 12.278118 1 11.400391 1 L 2.5996094 1 z M 10 2 L 11.400391 2 C 11.732663 2 12 2.2673366 12 2.5996094 L 12 4 L 10 4 L 10 2 z M 7 5 C 8.1104918 5 9 5.8895082 9 7 C 9 8.1104918 8.1104918 9 7 9 C 5.8895082 9 5 8.1104918 5 7 C 5 5.8895082 5.8895082 5 7 5 z M 2 7 L 4 7 C 4 8.6509319 5.3490681 10 7 10 C 8.6509319 10 10 8.6509319 10 7 L 12 7 L 12 11.400391 C 12 11.732663 11.732663 12 11.400391 12 L 2.5996094 12 C 2.2673366 12 2 11.732663 2 11.400391 L 2 7 z" font-weight="400" font-family="sans-serif" white-space="normal" overflow="visible"/>
</svg>