<svg xmlns="http://www.w3.org/2000/svg" viewBox="0 0 16 16" width="32" height="32">
    <path style="line-height:normal;text-indent:0;text-align:start;text-decoration-line:none;text-decoration-style:solid;text-decoration-color:#000;text-transform:none;block-progression:tb;isolation:auto;mix-blend-mode:normal" d="M 11.736328 2 C 11.638383 1.9996345 11.539587 2.0103048 11.441406 2.03125 L 6.1855469 3.1582031 C 5.4972494 3.3060154 5 3.9206554 5 4.625 L 5 10.28125 C 4.7040972 10.107658 4.3654971 10 4 10 C 2.9013528 10 2 10.901353 2 12 C 2 13.098647 2.9013528 14 4 14 C 5.0986472 14 6 13.098647 6 12 L 6 6.4042969 L 12 5.1171875 L 12 9.28125 C 11.704097 9.1076578 11.365497 9 11 9 C 9.9013528 9 9 9.9013528 9 11 C 9 12.098647 9.9013528 13 11 13 C 12.098647 13 13 12.098647 13 11 L 13 3.2929688 C 13 2.8915731 12.829597 2.5134131 12.535156 2.2753906 C 12.314325 2.0968738 12.030162 2.0010964 11.736328 2 z M 11.808594 3.0058594 C 11.84961 3.0149441 11.880595 3.0319949 11.90625 3.0527344 C 11.957559 3.0942117 12 3.1583642 12 3.2929688 L 12 4.0957031 L 6 5.3828125 L 6 4.625 C 6 4.3853446 6.1608288 4.1869065 6.3945312 4.1367188 L 11.650391 3.0097656 C 11.716529 2.9956561 11.767577 2.9967746 11.808594 3.0058594 z M 11 10 C 11.558207 10 12 10.441793 12 11 C 12 11.558207 11.558207 12 11 12 C 10.441793 12 10 11.558207 10 11 C 10 10.441793 10.441793 10 11 10 z M 4 11 C 4.5582071 11 5 11.441793 5 12 C 5 12.558207 4.5582071 13 4 13 C 3.4417929 13 3 12.558207 3 12 C 3 11.441793 3.4417929 11 4 11 z" font-weight="400" font-family="sans-serif" white-space="normal" overflow="visible"/>
</svg>