<svg xmlns="http://www.w3.org/2000/svg" viewBox="0 0 16 16" width="32" height="32">
    <path style="line-height:normal;text-indent:0;text-align:start;text-decoration-line:none;text-decoration-style:solid;text-decoration-color:#000;text-transform:none;block-progression:tb;isolation:auto;mix-blend-mode:normal" d="M 12.5 1 C 11.12521 1 10 2.1252104 10 3.5 C 10 3.9806767 10.143181 4.4263629 10.380859 4.8085938 L 8.0527344 7 L 5.9492188 7 C 5.9492188 7 5.9492188 6.9980469 5.9492188 6.9980469 C 5.7150505 5.8616729 4.7029409 5 3.5 5 C 2.1252104 5 1 6.1252104 1 7.5 C 1 8.8747896 2.1252104 10 3.5 10 C 4.7029409 10 5.7150505 9.1363739 5.9492188 8 L 8.0566406 8 L 10.404297 10.148438 C 10.150522 10.539374 10 11.001888 10 11.5 C 10 12.87479 11.12521 14 12.5 14 C 13.87479 14 15 12.87479 15 11.5 C 15 10.12521 13.87479 9 12.5 9 C 11.982935 9 11.501434 9.1579397 11.101562 9.4296875 L 9 7.5078125 L 9 7.4785156 L 11.064453 5.5371094 C 11.472185 5.826136 11.965172 6 12.5 6 C 13.87479 6 15 4.8747896 15 3.5 C 15 2.1252104 13.87479 1 12.5 1 z M 12.5 2 C 13.334349 2 14 2.6656506 14 3.5 C 14 4.3343494 13.334349 5 12.5 5 C 11.665651 5 11 4.3343494 11 3.5 C 11 2.6656506 11.665651 2 12.5 2 z M 3.5 6 C 4.3343494 6 5 6.6656506 5 7.5 C 5 8.3343494 4.3343494 9 3.5 9 C 2.6656506 9 2 8.3343494 2 7.5 C 2 6.6656506 2.6656506 6 3.5 6 z M 12.5 10 C 13.334349 10 14 10.665651 14 11.5 C 14 12.334349 13.334349 13 12.5 13 C 11.665651 13 11 12.334349 11 11.5 C 11 10.665651 11.665651 10 12.5 10 z" font-weight="400" font-family="sans-serif" white-space="normal" overflow="visible"/>
</svg>